<svg id="a480746d-7ae7-4050-9ed1-6cfd3c42f0a0" data-name="Toolbox" xmlns="http://www.w3.org/2000/svg" xmlns:xlink="http://www.w3.org/1999/xlink" viewBox="0 0 214.44 40.47"><defs><linearGradient id="a6d1ddec-a8b7-4f10-8218-ee7cf82b2a02" x1="29.47" y1="36.33" x2="14.04" y2="9.6" gradientUnits="userSpaceOnUse"><stop offset="0" stop-color="#ffc20e"/><stop offset="1" stop-color="#ffe96b"/></linearGradient><linearGradient id="eac3d8f5-b1c6-4827-8db2-4ced98aec3de" x1="34.39" y1="26.5" x2="18.96" y2="-0.22" xlink:href="#a6d1ddec-a8b7-4f10-8218-ee7cf82b2a02"/></defs><title>Artboard 6</title><path d="M62.13,22.18v5.68a.13.13,0,0,1-.1.1H54.54a.14.14,0,0,1-.15-.15V17.34a1,1,0,0,0-.94-.94H52.6a.14.14,0,0,1-.15-.14V12.61a.11.11,0,0,1,.09-.09H62a.14.14,0,0,1,.14.14v5.56h5.74V12.61a.12.12,0,0,1,.1-.09h7.49a.14.14,0,0,1,.15.14V23.13a1,1,0,0,0,1,.94h.84a.14.14,0,0,1,.15.14v3.65a.12.12,0,0,1-.09.1H68a.14.14,0,0,1-.15-.15V22.18ZM92.41,16.4h-.83a.14.14,0,0,1-.15-.14V12.61a.11.11,0,0,1,.09-.09h9.42a.14.14,0,0,1,.15.14V23.13a1,1,0,0,0,.94.94h.84a.14.14,0,0,1,.15.14v3.65a.12.12,0,0,1-.09.1H84.73c-3.2,0-5.81-2.16-5.81-4.84V12.61a.11.11,0,0,1,.09-.09h7.5a.14.14,0,0,1,.15.14V23.13a1,1,0,0,0,.95.94h5.71V17.34A.92.92,0,0,0,92.41,16.4Zm12.75,7.76a.12.12,0,0,1,.1-.09h10.65a.95.95,0,0,0,0-1.89h-5.78c-3.2,0-5.8-2.15-5.8-4.84s2.59-4.82,5.78-4.82h12.56a.14.14,0,0,1,.14.14v3.65a.12.12,0,0,1-.1.09H114a1,1,0,0,0-.95,1,1,1,0,0,0,.94.94h5.78c3.2,0,5.8,2.15,5.8,4.84S123,28,119.78,28H105.31a.14.14,0,0,1-.14-.15Zm41.69-7.76H146a.14.14,0,0,1-.15-.14V12.61a.11.11,0,0,1,.09-.09h9.43a.14.14,0,0,1,.14.14l0,10.47a1,1,0,0,0,.94.94h5.21a.14.14,0,0,1,.14.14v3.65a.13.13,0,0,1-.1.1H153.6c-3.2,0-5.8-2.16-5.8-4.84V17.34A1,1,0,0,0,146.85,16.4Zm47.53,7.51v3.95s0,.1-.08.1h-7.5a.14.14,0,0,1-.15-.15V17.34a1,1,0,0,0-.94-.94h-.84a.14.14,0,0,1-.15-.14V12.61a.11.11,0,0,1,.09-.09H203c3.2,0,5.81,2.15,5.81,4.83a4.83,4.83,0,0,1-2.88,4.16v1.62a1,1,0,0,0,.94.94h1.8a.14.14,0,0,1,.15.14v3.65a.12.12,0,0,1-.09.1H204c-3.2,0-5.8-2.16-5.8-4.84v-.94h-1.73a.15.15,0,0,1-.15-.14V18.38a.12.12,0,0,1,.09-.09h3.71a.95.95,0,0,0,0-1.89h-5.76v7.51ZM137.31,16.4a.09.09,0,0,0-.1,0c0,.85,0,6.74,0,6.74a1,1,0,0,0,.94.94H144a.14.14,0,0,1,.15.14v3.65a.12.12,0,0,1-.09.1h-8.76c-3.2,0-5.81-2.16-5.81-4.84V17.34a1,1,0,0,0-.94-.94h-3.25a.14.14,0,0,1-.15-.14V12.61a.11.11,0,0,1,.09-.09H143.8a.14.14,0,0,1,.15.14v3.65a.11.11,0,0,1-.09.09Zm34.56,7.67h11a.14.14,0,0,1,.14.14v3.65a.13.13,0,0,1-.1.1H169c-3.13,0-5.69-2.06-5.8-4.66v-6a1,1,0,0,0-1-.94h-.84a.14.14,0,0,1-.15-.14V12.61a.12.12,0,0,1,.1-.09h21.59a.14.14,0,0,1,.15.14v3.65a.11.11,0,0,1-.09.09H170.89v1.89H181a.14.14,0,0,1,.15.15V22a.13.13,0,0,1-.13.14H170.89v.9A1,1,0,0,0,171.87,24.07Z" fill="#fff" fill-rule="evenodd"/><path d="M211.69,15a1.44,1.44,0,0,1-2,0,1.42,1.42,0,0,1-.41-1,1.38,1.38,0,0,1,.42-1,1.4,1.4,0,0,1,1-.41,1.41,1.41,0,0,1,1,.41,1.44,1.44,0,0,1,0,2Zm-1.89-1.88a1.26,1.26,0,0,0,0,1.74,1.22,1.22,0,0,0,1.75,0,1.23,1.23,0,0,0,0-1.74,1.16,1.16,0,0,0-.87-.37A1.19,1.19,0,0,0,209.8,13.08Zm.85.08a1.43,1.43,0,0,1,.43.05.39.39,0,0,1,.25.4.33.33,0,0,1-.16.31A.56.56,0,0,1,211,14a.4.4,0,0,1,.27.15.52.52,0,0,1,.08.25v.11a.49.49,0,0,0,0,.12.17.17,0,0,0,0,.08v0h-.26v-.21a.39.39,0,0,0-.15-.36.76.76,0,0,0-.31-.05h-.23v.62h-.27V13.16Zm.3.25a.71.71,0,0,0-.34-.06h-.24v.57h.26a.74.74,0,0,0,.26,0,.24.24,0,0,0,.17-.24A.25.25,0,0,0,211,13.41Z" fill="#fff"/><path d="M35.11,38.82h-22A11.29,11.29,0,0,1,1.82,27.57V12.9A11.27,11.27,0,0,1,13.08,1.65H35.34A11.28,11.28,0,0,1,46.6,12.9V27.57A11.24,11.24,0,0,1,35.11,38.82Zm.23-36.17H13.08A10.29,10.29,0,0,0,2.83,12.9V27.57A10.29,10.29,0,0,0,13.08,37.82h22A10.26,10.26,0,0,0,45.59,27.56V12.9A10.29,10.29,0,0,0,35.34,2.65Z" fill="#ffc425"/><path d="M46.09,27.56a10.74,10.74,0,0,1-11,10.76h-22A10.78,10.78,0,0,1,2.32,27.56V12.9A10.74,10.74,0,0,1,13.08,2.15H35.34A10.76,10.76,0,0,1,46.1,12.9Z" fill="#3b3b3c"/><path d="M27.5,26.59a.27.27,0,0,0,.26.27H41.38a.25.25,0,0,1,.26.3,5.8,5.8,0,0,1-5.74,4.53H12.61a5.83,5.83,0,0,1-5.83-5.84V13.94a.27.27,0,0,1,.27-.26h4a1,1,0,0,1,1.07,1.07V25.4a1.48,1.48,0,0,0,1.48,1.46h7.09A.26.26,0,0,0,21,26.6V20.53a.26.26,0,0,1,.26-.26h6a.26.26,0,0,1,.26.26Z" fill="url(#a6d1ddec-a8b7-4f10-8218-ee7cf82b2a02)"/><path d="M20.93,9.51a.26.26,0,0,0-.26-.26H7a.25.25,0,0,1-.26-.3,5.79,5.79,0,0,1,5.74-4.52H35.81a5.84,5.84,0,0,1,5.84,5.84v11.9a.27.27,0,0,1-.26.27h-4a1,1,0,0,1-1.07-1.08l0-10.61a1.47,1.47,0,0,0-1.47-1.5h-7.1a.26.26,0,0,0-.26.26v6.07a.27.27,0,0,1-.27.26h-6a.27.27,0,0,1-.27-.26Z" fill="url(#eac3d8f5-b1c6-4827-8db2-4ced98aec3de)"/></svg>